<svg xmlns="http://www.w3.org/2000/svg" viewBox="441 256 467 549" width="467" height="549"><metadata><rdf:RDF xmlns:rdf="http://www.w3.org/1999/02/22-rdf-syntax-ns#" xmlns:dc="http://purl.org/dc/elements/1.1/"><rdf:Description><dc:creator>RealFaviconGenerator</dc:creator><dc:source>https://realfavicongenerator.net</dc:source></rdf:Description></rdf:RDF></metadata><path d="M0 0 C6.41289667 2.19742613 11.78175393 6.96696064 17.21411133 10.91674805 C29.10058518 19.48350518 41.75404801 26.76034738 55 33 C55 33.66 55 34.32 55 35 C56.093125 35.20625 57.18625 35.4125 58.3125 35.625 C63.08249881 36.80277748 66.9801947 39.08505555 71.23046875 41.4921875 C75.35089951 43.73546856 79.61214302 45.3605154 84 47 C85.3129658 47.51313264 86.6254275 48.02755624 87.9375 48.54296875 C89.35393312 49.09174901 90.77060056 49.63992486 92.1875 50.1875 C92.85289795 50.44982422 93.5182959 50.71214844 94.20385742 50.98242188 C97.36139035 52.18499253 100.04491747 53.00558267 103.42578125 53.42578125 C106.54184304 53.92639446 108.29587027 54.51190401 111.05859375 55.84765625 C117.13819236 58.69421805 123.53636727 59.98400532 130.0625 61.4375 C131.38980956 61.74132171 132.71695614 62.0458562 134.04394531 62.35107422 C140.32811735 63.78636393 146.62361376 65.14430364 152.94921875 66.38671875 C154.01712646 66.59820557 155.08503418 66.80969238 156.18530273 67.02758789 C158.15737066 67.41200996 160.13205384 67.78336756 162.10961914 68.13842773 C172.55644806 70.1583669 180.91169783 74.05600513 187 83 C190.4251332 89.64577925 191.57781767 95.53466381 191.45410156 102.94775391 C191.45468567 103.88555695 191.45526978 104.82335999 191.45587158 105.7895813 C191.45311158 108.85230091 191.42211907 111.91401547 191.390625 114.9765625 C191.38315519 117.11460845 191.37746576 119.25266128 191.37347412 121.39071655 C191.35827617 126.99020631 191.31904492 132.58927433 191.2746582 138.18859863 C191.23357913 143.91343482 191.2154362 149.63833983 191.1953125 155.36328125 C191.15254482 166.57570509 191.08436469 177.78781733 191 189 C190.46927383 189.276091 189.93854767 189.55218201 189.39173889 189.8366394 C186.93814141 191.11498207 184.48664846 192.39731246 182.03515625 193.6796875 C181.2006897 194.11369873 180.36622314 194.54770996 179.50646973 194.99487305 C173.37771202 198.20581239 167.42262847 201.63406847 161.55603027 205.30102539 C157.1963122 208 157.1963122 208 155 208 C155 173.68 155 139.36 155 104 C149.39 103.01 143.78 102.02 138 101 C133.08767431 99.95931852 128.19951975 98.89499632 123.3125 97.75 C122.67213806 97.60004578 122.03177612 97.45009155 121.37200928 97.29559326 C109.36388399 94.466512 97.64052135 91.082069 86 87 C85.05527832 86.67306152 84.11055664 86.34612305 83.13720703 86.00927734 C55.07728552 76.20946719 21.84462077 62.90856021 -0.5625 42.6875 C-2.83302142 40.78002549 -2.83302142 40.78002549 -5.38671875 40.96875 C-8.87126076 42.34381591 -11.77672868 44.34759492 -14.8125 46.5 C-22.04579975 51.47671145 -29.51529985 55.82995051 -37.22070312 60.02880859 C-38.78234602 60.8811982 -40.33707371 61.74623168 -41.890625 62.61328125 C-65.34115552 75.63745314 -90.01727972 86.20027832 -116 93 C-117.00530762 93.26458008 -118.01061523 93.52916016 -119.04638672 93.80175781 C-132.23796688 97.24992117 -145.34903052 100.53389286 -158.8515625 102.4921875 C-161.89251603 102.82163892 -161.89251603 102.82163892 -164 104 C-164.09395528 125.08151623 -164.16422763 146.16299733 -164.20724869 167.24468136 C-164.22776602 177.03599537 -164.25567608 186.82717836 -164.30175781 196.6184082 C-164.34196084 205.16472316 -164.36751119 213.71094312 -164.37635398 222.25735003 C-164.38151287 226.77149365 -164.39340398 231.2853658 -164.42292023 235.79942131 C-164.64865822 271.76506072 -160.46091871 306.03333139 -145 339 C-144.42900314 340.26661879 -143.85876439 341.53357948 -143.2890625 342.80078125 C-132.4116927 366.7541675 -117.46202358 389.26968887 -98.4375 407.5625 C-97 409 -97 409 -94.5625 412 C-91.97374532 415.03073719 -89.25607799 417.50877691 -86.23046875 420.0859375 C-83.81725528 422.15682122 -81.47258913 424.29260695 -79.125 426.4375 C-59.39146082 444.19469079 -36.87584381 458.6580408 -14 472 C-13.11175537 472.57790283 -13.11175537 472.57790283 -12.20556641 473.16748047 C-9.56336626 474.83230164 -7.64755817 476.00902171 -4.4765625 475.96484375 C-1.29665473 474.72598378 1.66575891 473.24891182 4.625 471.5625 C5.29595703 471.18198486 5.96691406 470.80146973 6.65820312 470.40942383 C29.10396111 457.37107911 50.46588819 442.07291735 70 425 C70.84820313 424.26394531 71.69640625 423.52789063 72.5703125 422.76953125 C83.30052329 413.29865388 93.15910304 403.26282851 102 392 C102.65226562 391.21496094 103.30453125 390.42992187 103.9765625 389.62109375 C117.81099356 372.89300679 128.24358269 353.784075 137 334 C137.27440918 333.38334473 137.54881836 332.76668945 137.83154297 332.13134766 C140.47677562 326.10309639 142.7688309 320.22644242 144.24609375 313.81640625 C147.0980967 301.66505325 150.27760868 294.86351969 160.30078125 287.32080078 C163.07548726 285.16402499 165.5764438 282.72771366 168.125 280.3125 C172.85414492 275.97274019 177.70866784 271.88030058 182.72265625 267.875 C184.97159126 266.09705526 184.97159126 266.09705526 186.68359375 264.25 C188 263 188 263 190 263 C188.60823981 282.53838946 185.7262864 301.24921906 180 320 C179.06919945 323.4179599 178.13992299 326.83619423 177.22265625 330.2578125 C166.82486783 362.08235342 149.19367086 391.27507069 128 417 C127.51337891 417.59103516 127.02675781 418.18207031 126.52539062 418.79101562 C115.32763672 432.27757305 103.2027717 445.29366382 89.375 456.1171875 C87.14373238 457.88605427 85.08025561 459.74538636 83 461.6875 C62.74104995 479.87698741 38.3091498 493.97861502 14.8125 507.5 C13.50321533 508.25676025 13.50321533 508.25676025 12.16748047 509.02880859 C9.79380759 510.38355241 7.40487524 511.70161055 5 513 C4.38946777 513.34417969 3.77893555 513.68835938 3.14990234 514.04296875 C-1.73150058 516.5208098 -5.8428843 516.31401989 -11 515 C-14.0270459 513.85216978 -16.80185178 512.39055646 -19.625 510.8125 C-20.43130859 510.37397705 -21.23761719 509.9354541 -22.06835938 509.48364258 C-50.13632443 494.01473076 -76.8081402 476.03785867 -101 455 C-101.71285156 454.38769531 -102.42570313 453.77539062 -103.16015625 453.14453125 C-105.12334938 451.44739714 -107.06500133 449.72922456 -109 448 C-109.9590625 447.14535156 -110.918125 446.29070312 -111.90625 445.41015625 C-116.9499176 440.87730955 -121.834865 436.32650448 -126.19140625 431.11328125 C-128.37013835 428.56750573 -130.6890108 426.17636898 -133 423.75 C-144.99284268 410.85685074 -155.12522492 396.17419789 -164 381 C-164.40524902 380.31824707 -164.81049805 379.63649414 -165.22802734 378.93408203 C-179.24099543 355.2404202 -189.11029612 329.48007985 -195.3125 302.6875 C-195.54291992 301.7190918 -195.77333984 300.75068359 -196.01074219 299.75292969 C-201.3250533 275.3507992 -201.4473453 250.63499498 -201.37004495 225.80365777 C-201.35852258 221.22043956 -201.36285272 216.63722944 -201.36479187 212.05400085 C-201.36566672 204.38679276 -201.35475209 196.71967449 -201.33618164 189.05249023 C-201.31488218 180.20827791 -201.31153938 171.36419544 -201.3177436 162.51996261 C-201.32344256 153.9539821 -201.31779452 145.38804694 -201.30657005 136.82207298 C-201.30194575 133.19747256 -201.30104055 129.57290006 -201.3031559 125.9482975 C-201.30504386 121.69213812 -201.29689614 117.43611055 -201.2810955 113.17998123 C-201.27686946 111.6239813 -201.27599074 110.06796796 -201.27878571 108.5119648 C-201.29775314 96.06186426 -200.56904839 85.92709469 -191.875 76.3125 C-184.48993613 69.43734991 -174.62337556 68.13789337 -165 66.5625 C-154.78612087 64.78373285 -144.92182534 62.56211831 -134.99804688 59.58642578 C-131.68363523 58.61364758 -128.34154045 57.74896081 -125 56.875 C-116.90825871 54.71835254 -109.08983808 52.63015501 -101.48046875 49.1015625 C-97.52225465 47.34374144 -93.46209607 45.85957126 -89.40625 44.34375 C-62.60720688 33.77165042 -38.08063113 18.62304896 -14.60620117 2.0847168 C-10.08648995 -0.96758248 -5.28287763 -0.59326433 0 0 Z " fill="#0DA2B3" transform="translate(632,286)"></path><path d="M0 0 C0.90143738 -0.01283524 1.80287476 -0.02567047 2.73162842 -0.03889465 C3.70867737 -0.04628159 4.68572632 -0.05366852 5.69238281 -0.0612793 C6.69634094 -0.06935104 7.70029907 -0.07742279 8.73468018 -0.08573914 C10.86314158 -0.09958646 12.99162525 -0.11030571 15.12011719 -0.11816406 C18.36859529 -0.13535562 21.61605019 -0.17923397 24.86425781 -0.22338867 C26.93195866 -0.23351739 28.99966816 -0.24203293 31.06738281 -0.2487793 C32.03633484 -0.26628738 33.00528687 -0.28379547 34.00360107 -0.30183411 C39.86051927 -0.28308799 43.18264091 0.27721129 47.64550781 4.17700195 C48.84345259 6.57289151 48.78251703 8.08757698 48.80322266 10.76269531 C48.8134848 11.71385727 48.82374695 12.66501923 48.83432007 13.64500427 C48.8416214 14.67521194 48.84892273 15.70541962 48.85644531 16.7668457 C48.88450766 18.93417104 48.91317208 21.10148866 48.94238281 23.26879883 C48.98371041 26.69677568 49.02058531 30.12460729 49.046875 33.55273438 C49.07440377 36.85357687 49.12027004 40.15375655 49.16894531 43.4543457 C49.17219818 44.48252914 49.17545105 45.51071259 49.17880249 46.5700531 C49.19536896 47.52436722 49.21193542 48.47868134 49.22900391 49.46191406 C49.23709076 50.30193466 49.24517761 51.14195526 49.25350952 52.00743103 C49.74332821 54.718403 50.39772853 55.60340582 52.64550781 57.17700195 C54.75656985 57.6134596 54.75656985 57.6134596 57.11352539 57.5300293 C58.01488724 57.533685 58.91624908 57.5373407 59.84492493 57.54110718 C60.81681259 57.53181183 61.78870026 57.52251648 62.79003906 57.51293945 C64.84928699 57.52545428 66.9085318 57.53849151 68.96777344 57.55200195 C72.21341003 57.55592981 75.45873858 57.55199866 78.7043457 57.53735352 C81.83754332 57.52877137 84.96945453 57.55049014 88.10253906 57.57543945 C89.06835403 57.56209564 90.03416901 57.54875183 91.0292511 57.53500366 C95.17083787 57.58029293 98.71682046 57.70316563 102.25683594 60.01147461 C105.78585121 64.68821336 105.49028546 68.70839008 105.40722656 74.42700195 C105.41227959 76.06330566 105.41227959 76.06330566 105.41743469 77.73266602 C105.4171361 80.03577394 105.40191092 82.33892171 105.37280273 84.6418457 C105.33314049 88.16521607 105.35209447 91.68482002 105.37792969 95.20825195 C105.37037024 97.44784988 105.35941646 99.68743945 105.34472656 101.92700195 C105.35171066 102.97919922 105.35869476 104.03139648 105.3658905 105.11547852 C105.22491827 112.42465148 105.22491827 112.42465148 102.22680664 116.31762695 C98.92070283 118.69909736 97.33236615 119.3016805 93.33520508 119.3347168 C92.44410538 119.34497894 91.55300568 119.35524109 90.63490295 119.36581421 C89.67031662 119.37311554 88.70573029 119.38041687 87.71191406 119.38793945 C85.68130696 119.41600202 83.6507081 119.44466644 81.62011719 119.47387695 C78.40942563 119.51520049 75.198889 119.55207662 71.98803711 119.57836914 C68.89567054 119.60590537 65.80401041 119.65177128 62.71191406 119.70043945 C61.26807091 119.70531876 61.26807091 119.70531876 59.7950592 119.71029663 C58.90080734 119.7268631 58.00655548 119.74342957 57.08520508 119.76049805 C56.29847916 119.7685849 55.51175323 119.77667175 54.70118713 119.78500366 C52.06614645 120.2874806 51.18899735 120.99560361 49.64550781 123.17700195 C49.20874344 125.3288486 49.20874344 125.3288486 49.29248047 127.73681641 C49.28699692 129.1188903 49.28699692 129.1188903 49.28140259 130.52888489 C49.29069794 131.52264633 49.29999329 132.51640778 49.30957031 133.5402832 C49.29705559 135.64510398 49.28401837 137.74992171 49.27050781 139.85473633 C49.26657966 143.17279884 49.27051248 146.49056005 49.28515625 149.80859375 C49.29373679 153.01128017 49.27202215 156.21270748 49.24707031 159.4152832 C49.26041412 160.40297195 49.27375793 161.39066071 49.2875061 162.40827942 C49.2389304 166.9480451 49.15707815 170.16937926 46.23291016 173.78710938 C42.96650489 176.80417308 41.57913413 177.30129258 37.27514648 177.33813477 C36.37048141 177.34774231 35.46581635 177.35734985 34.53373718 177.36724854 C33.55355118 177.37149841 32.57336517 177.37574829 31.56347656 177.38012695 C30.55714676 177.38582703 29.55081696 177.3915271 28.51399231 177.3973999 C26.38132786 177.40685781 24.24864874 177.41338701 22.1159668 177.41723633 C18.85667306 177.42693156 15.59801256 177.45794354 12.33886719 177.48950195 C10.26790739 177.49603296 8.19694309 177.50128305 6.12597656 177.50512695 C5.15186325 177.51747375 4.17774994 177.52982056 3.17411804 177.5425415 C-5.55362641 177.51388796 -5.55362641 177.51388796 -9.35449219 174.17700195 C-11.17929461 171.18611721 -11.60752102 168.93649132 -11.62573242 165.45605469 C-11.63591904 164.52506454 -11.64610565 163.5940744 -11.65660095 162.63487244 C-11.658741 161.63686111 -11.66088104 160.63884979 -11.66308594 159.6105957 C-11.68823448 157.49535844 -11.71363266 155.38012412 -11.73925781 153.26489258 C-11.76806553 149.93132214 -11.79208589 146.59780279 -11.81079102 143.26416016 C-11.83237957 140.0460427 -11.87180134 136.82851175 -11.91308594 133.6105957 C-11.91320175 132.61056015 -11.91331757 131.6105246 -11.91343689 130.58018494 C-11.93344505 129.18842796 -11.93344505 129.18842796 -11.95385742 127.76855469 C-11.95892807 126.95233139 -11.96399872 126.13610809 -11.96922302 125.29515076 C-12.45709302 122.61291886 -13.1303482 121.73572399 -15.35449219 120.17700195 C-17.51392454 119.74685343 -17.51392454 119.74685343 -19.93017578 119.83984375 C-20.85478607 119.83941574 -21.77939636 119.83898773 -22.73202515 119.83854675 C-23.72892365 119.85097916 -24.72582214 119.86341156 -25.75292969 119.8762207 C-27.86230782 119.86857855 -29.97168303 119.86008864 -32.08105469 119.85083008 C-35.40810852 119.85304156 -38.7345792 119.86454407 -42.06152344 119.89208984 C-45.27176294 119.91279646 -48.48022638 119.89678342 -51.69042969 119.8762207 C-52.68327972 119.8947258 -53.67612976 119.9132309 -54.69906616 119.93229675 C-59.37228885 119.88267628 -61.65630676 119.69893527 -65.47729492 116.8425293 C-68.46789801 112.31372153 -68.08866973 107.07026651 -68.05371094 101.8293457 C-68.06086624 100.73989151 -68.06802155 99.65043732 -68.07539368 98.52796936 C-68.08315959 96.23089413 -68.07818222 93.93374491 -68.0612793 91.63671875 C-68.04203347 88.12204079 -68.08147827 84.61130594 -68.12597656 81.09692383 C-68.12626688 78.86189543 -68.12312787 76.62686341 -68.11621094 74.3918457 C-68.13149338 73.34278549 -68.14677582 72.29372528 -68.16252136 71.21287537 C-68.08516937 66.37362022 -67.9379539 63.94458378 -64.94995117 60.01367188 C-60.68093653 57.22716493 -56.0009653 57.50543673 -51.06542969 57.57543945 C-50.08458405 57.56743317 -49.1037384 57.55942688 -48.09317017 57.55117798 C-44.97151988 57.52816003 -41.85117695 57.53755862 -38.72949219 57.55200195 C-35.60091241 57.55584896 -32.47290592 57.55243028 -29.34439087 57.53140259 C-27.40120885 57.5193083 -25.45786561 57.52199094 -23.51473999 57.54110718 C-22.63347443 57.53745148 -21.75220886 57.53379578 -20.84423828 57.5300293 C-20.07179779 57.53400726 -19.2993573 57.53798523 -18.50350952 57.54208374 C-15.69124409 57.06432729 -14.35523415 56.20189047 -12.35449219 54.17700195 C-11.77397573 51.9854702 -11.77397573 51.9854702 -11.88793945 49.50952148 C-11.88435928 48.56489044 -11.88077911 47.6202594 -11.87709045 46.64700317 C-11.89154709 45.6282309 -11.90600372 44.60945862 -11.92089844 43.55981445 C-11.91129152 41.40486582 -11.9015208 39.24991792 -11.89160156 37.0949707 C-11.90020187 33.69563577 -11.91702816 30.29648961 -11.93920898 26.8972168 C-11.95372431 23.61770491 -11.93847664 20.33928744 -11.92089844 17.05981445 C-11.9373793 16.04509064 -11.95386017 15.03036682 -11.97084045 13.9848938 C-11.92074822 6.90941252 -11.92074822 6.90941252 -8.9440918 3.05932617 C-5.62496392 0.64672356 -4.02508143 0.04986334 0 0 Z " fill="#07B1B1" transform="translate(608.3544921875,400.822998046875)"></path><path d="M0 0 C0.33 1.65 0.66 3.3 1 5 C-2.76087365 8.42657377 -6.48166137 11.38914282 -10.8125 14.0625 C-26.79569114 23.99977978 -41.82035809 35.81381895 -56.31640625 47.78515625 C-58.12919392 49.28129979 -59.94974557 50.76807835 -61.77734375 52.24609375 C-67.15629687 56.5990474 -72.35472663 61.08529721 -77.46484375 65.75 C-80.10016031 68.08889421 -82.81277292 70.29715883 -85.5625 72.5 C-89.96765631 76.06135172 -93.95995902 79.85191751 -97.91015625 83.90625 C-99.75252173 85.75205916 -101.63269645 87.44546669 -103.625 89.125 C-108.51864743 93.31113214 -112.96703738 97.94223784 -117.49487305 102.5144043 C-121.28742586 106.32978949 -125.13853074 109.98685942 -129.2421875 113.46875 C-134.69152229 118.21572609 -139.51634147 123.52810644 -144.21875 129 C-146.0742521 131.08337078 -148.01223101 133.04281207 -150 135 C-153.21434731 138.1711603 -156.21750963 141.45582753 -159.16015625 144.87890625 C-161.19508819 147.22491058 -163.28290967 149.5173645 -165.375 151.8125 C-169.32127484 156.18015673 -173.04222166 160.6968247 -176.7421875 165.2734375 C-178.96792156 167.96126167 -181.27182262 170.54847019 -183.625 173.125 C-186.96239158 176.79613074 -190.08043112 180.55050889 -193.0859375 184.49609375 C-194.91284468 186.88598662 -196.77454921 189.2457524 -198.64477539 191.60180664 C-212.42663993 208.99858646 -226.0133524 226.7786159 -237.9140625 245.53125 C-239.58490805 247.79109866 -240.99496701 247.99906797 -243.7421875 248.5078125 C-248.6741634 247.73903928 -250.26510056 244.74899194 -253.125 240.875 C-254.26645204 239.39966501 -255.40971948 237.925733 -256.5546875 236.453125 C-257.12799805 235.70611328 -257.70130859 234.95910156 -258.29199219 234.18945312 C-260.84617282 230.91531191 -263.53373079 227.76498793 -266.25 224.625 C-266.7462085 224.0489502 -267.24241699 223.47290039 -267.75366211 222.87939453 C-271.36321828 218.70293948 -275.02521577 214.57588477 -278.74145508 210.49389648 C-280.13604591 208.95398238 -281.52251731 207.40661578 -282.89550781 205.84741211 C-289.07269206 198.85763938 -295.59697 192.24998084 -302.20239258 185.66723633 C-304.06643244 183.80857892 -305.92503512 181.94460386 -307.78320312 180.08007812 C-313.68737003 174.17261145 -319.61943737 168.39728023 -326 163 C-327.60768373 161.54554483 -329.21239715 160.08779105 -330.8125 158.625 C-336.91626703 153.11465476 -343.25823681 147.89497096 -349.76171875 142.86328125 C-352 141 -352 141 -353 139 C-353.44036697 133.82568807 -353.44036697 133.82568807 -352 131.125 C-348.25314991 129.01739682 -343.79861995 129.60641963 -339.71728516 130.49951172 C-337.21997844 131.22109402 -334.76884271 132.02428138 -332.3125 132.875 C-331.4040332 133.18526123 -330.49556641 133.49552246 -329.55957031 133.81518555 C-306.91113672 141.80840639 -286.78356593 154.25161959 -266.97265625 167.60546875 C-266.15812988 168.15380371 -265.34360352 168.70213867 -264.50439453 169.26708984 C-262.74336468 170.48563048 -261.00648586 171.73945505 -259.28857422 173.01806641 C-258.40830566 173.6682373 -257.52803711 174.3184082 -256.62109375 174.98828125 C-255.83017334 175.58809814 -255.03925293 176.18791504 -254.22436523 176.8059082 C-252.10802013 178.19882197 -252.10802013 178.19882197 -249.88427734 177.84082031 C-246.725165 176.4311309 -244.54777739 173.89601375 -242.1875 171.4375 C-241.65777588 170.89681885 -241.12805176 170.3561377 -240.58227539 169.79907227 C-237.06320956 166.18107471 -233.66095876 162.47670693 -230.40234375 158.62109375 C-228.99187701 156.99060992 -227.61013989 155.43559898 -226 154 C-225.34 154 -224.68 154 -224 154 C-223.67 153.01 -223.34 152.02 -223 151 C-221.6796875 149.703125 -221.6796875 149.703125 -219.875 148.25 C-215.50740742 144.56040916 -211.51493059 140.56295134 -207.5 136.5 C-203.1022566 132.06305816 -198.7177545 127.69374624 -193.94140625 123.66015625 C-191.46555003 121.54297538 -189.08338732 119.33218171 -186.6875 117.125 C-182.12201748 112.95733961 -177.41556364 109.02126573 -172.60546875 105.140625 C-170.23616078 103.19402714 -167.95558996 101.18766222 -165.6875 99.125 C-160.89134378 94.81442265 -155.83062677 90.88089556 -150.7421875 86.92578125 C-147.59145303 84.474018 -144.48322351 81.97368319 -141.38183594 79.45996094 C-134.38536689 73.79961053 -127.23012373 68.45713853 -119.85400391 63.30371094 C-117.89642068 61.92716439 -115.95327882 60.53185723 -114.01171875 59.1328125 C-103.6007015 51.65707618 -92.91306376 44.71853725 -82 38 C-81.06220703 37.41919678 -81.06220703 37.41919678 -80.10546875 36.82666016 C-75.77500127 34.15132423 -71.39788925 31.56270877 -67 29 C-66.12698242 28.48711426 -65.25396484 27.97422852 -64.35449219 27.44580078 C-15.73366359 -0.98335397 -15.73366359 -0.98335397 0 0 Z " fill="#1486BD" transform="translate(878,477)"></path><path d="M0 0 C0.33 0 0.66 0 1 0 C1.45755944 6.03505127 0.0888107 9.84590543 -2.625 15.1875 C-3.17414063 16.30451294 -3.17414063 16.30451294 -3.734375 17.4440918 C-4.47249503 18.94178508 -5.2162174 20.43673178 -5.96582031 21.92871094 C-6.86260788 23.72482655 -7.72725991 25.53691872 -8.5859375 27.3515625 C-12.0955613 34.70044327 -16.35591441 41.32127573 -21 48 C-21.54269531 48.81984375 -22.08539062 49.6396875 -22.64453125 50.484375 C-26.59575389 56.36794739 -31.05030252 61.70063764 -35.73730469 67.00341797 C-36.23004883 67.56432129 -36.72279297 68.12522461 -37.23046875 68.703125 C-37.66770264 69.19458008 -38.10493652 69.68603516 -38.55541992 70.19238281 C-40.14839062 72.1245199 -40.14839062 72.1245199 -41.87207031 74.88842773 C-43.97552642 77.96421342 -46.18872497 80.44721438 -48.81640625 83.08203125 C-49.74646484 84.01466797 -50.67652344 84.94730469 -51.63476562 85.90820312 C-52.11727783 86.38652588 -52.59979004 86.86484863 -53.09692383 87.35766602 C-54.54153753 88.79169118 -55.9753096 90.23591595 -57.40820312 91.68164062 C-63.60419286 97.88727501 -70.1058173 103.57380564 -77 109 C-77.69134033 109.54970459 -78.38268066 110.09940918 -79.0949707 110.66577148 C-80.84902358 112.0558406 -82.61003718 113.4363227 -84.375 114.8125 C-85.52880699 115.71463768 -86.68245575 116.61697776 -87.8359375 117.51953125 C-88.37573242 117.94057129 -88.91552734 118.36161133 -89.47167969 118.79541016 C-90.86239292 119.891541 -92.23317884 121.01283607 -93.6015625 122.13671875 C-95.97914798 123.98380063 -98.40511308 125.47885939 -101 127 C-102.63552986 128.10963601 -104.26046845 129.23502725 -105.875 130.375 C-106.74640625 130.98730469 -107.6178125 131.59960938 -108.515625 132.23046875 C-109.99339079 133.28302835 -111.46477098 134.34479961 -112.921875 135.42578125 C-116.43646598 138.02948053 -119.94513331 140.01744728 -123.890625 141.8984375 C-126.25907746 143.13529601 -128.41715021 144.55849494 -130.625 146.0625 C-140.16089028 152.55083771 -140.16089028 152.55083771 -146 153 C-148.5625 152.1875 -148.5625 152.1875 -151 151 C-152.1446875 150.443125 -152.1446875 150.443125 -153.3125 149.875 C-153.869375 149.58625 -154.42625 149.2975 -155 149 C-155 148.34 -155 147.68 -155 147 C-155.99 147 -156.98 147 -158 147 C-158 146.34 -158 145.68 -158 145 C-154.83695138 145.95627051 -152.20923982 146.86220793 -149.4375 148.6875 C-146.30880591 150.37218143 -145.37872495 149.97490791 -142 149 C-139.71549069 147.92234586 -137.56360881 146.80974403 -135.375 145.5625 C-134.70404297 145.18198486 -134.03308594 144.80146973 -133.34179688 144.40942383 C-110.89603889 131.37107911 -89.53411181 116.07291735 -70 99 C-69.15179687 98.26394531 -68.30359375 97.52789063 -67.4296875 96.76953125 C-56.69947671 87.29865388 -46.84089696 77.26282851 -38 66 C-37.34773437 65.21496094 -36.69546875 64.42992187 -36.0234375 63.62109375 C-20.53615896 44.8944442 -8.29937265 22.81054568 0 0 Z " fill="#227BC6" transform="translate(772,612)"></path><path d="M0 0 C0 1.32 0 2.64 0 4 C-1.01191406 4.52980469 -2.02382813 5.05960938 -3.06640625 5.60546875 C-7.23135566 7.98798318 -10.50422306 10.99028278 -13.9375 14.3125 C-15.16980575 15.48127815 -16.40287254 16.64925443 -17.63671875 17.81640625 C-18.2198584 18.37086426 -18.80299805 18.92532227 -19.40380859 19.49658203 C-21.31305488 21.29485958 -23.26699933 23.03355339 -25.25 24.75 C-26.14138672 25.52537109 -26.14138672 25.52537109 -27.05078125 26.31640625 C-28.58539138 27.64189115 -30.1256481 28.96083872 -31.66796875 30.27734375 C-32.58191406 31.07269531 -33.49585938 31.86804688 -34.4375 32.6875 C-35.28183594 33.41324219 -36.12617187 34.13898437 -36.99609375 34.88671875 C-39.09635197 37.10161095 -39.61192287 38.04376537 -40 41 C-40.13019531 41.74636719 -40.26039063 42.49273438 -40.39453125 43.26171875 C-40.53246094 44.06222656 -40.67039062 44.86273437 -40.8125 45.6875 C-41.96694023 51.54650118 -43.69471044 57.69471044 -48 62 C-47.4130066 58.6381287 -46.73176153 55.33226892 -46 52 C-45.87592773 51.35691895 -45.75185547 50.71383789 -45.62402344 50.05126953 C-43.26111132 38.16129687 -39.18429639 31.84413525 -29.71533203 24.38525391 C-26.97030619 22.16844824 -24.44034876 19.732052 -21.875 17.3125 C-17.14585508 12.97274019 -12.29133216 8.88030058 -7.27734375 4.875 C-5.02840874 3.09705526 -5.02840874 3.09705526 -3.31640625 1.25 C-2 0 -2 0 0 0 Z " fill="#1E81C6" transform="translate(822,549)"></path><path d="M0 0 C0.99 0 1.98 0 3 0 C3 0.66 3 1.32 3 2 C1.71264648 3.18237305 1.71264648 3.18237305 -0.12890625 4.51171875 C-0.82363037 5.01541992 -1.51835449 5.51912109 -2.23413086 6.03808594 C-3.00249268 6.58239258 -3.77085449 7.12669922 -4.5625 7.6875 C-5.35084229 8.25114258 -6.13918457 8.81478516 -6.95141602 9.39550781 C-13.68213602 14.16160984 -20.53769792 18.73312207 -27.4375 23.25 C-28.43789307 23.90572998 -29.43828613 24.56145996 -30.46899414 25.23706055 C-31.40606201 25.84461182 -32.34312988 26.45216309 -33.30859375 27.078125 C-34.55854126 27.88878418 -34.55854126 27.88878418 -35.83374023 28.71582031 C-38 30 -38 30 -41 31 C-39.60659992 26.81979975 -36.63813145 25.53442361 -33.0625 23.3125 C-32.41603516 22.89677734 -31.76957031 22.48105469 -31.10351562 22.05273438 C-26.27628541 19 -26.27628541 19 -24 19 C-23.67 18.34 -23.34 17.68 -23 17 C-21.55642203 15.90954775 -20.07076266 14.87407318 -18.5625 13.875 C-17.75941406 13.33617187 -16.95632813 12.79734375 -16.12890625 12.2421875 C-14 11 -14 11 -12 11 C-11.67 10.01 -11.34 9.02 -11 8 C-10.34 8 -9.68 8 -9 8 C-8.67 7.34 -8.34 6.68 -8 6 C-3.5 3 -3.5 3 -1 3 C-0.67 2.01 -0.34 1.02 0 0 Z " fill="#2777C8" transform="translate(703,753)"></path><path d="M0 0 C0.66 0 1.32 0 2 0 C0.39737723 5.65523206 -2.2842043 10.52002478 -5.125 15.625 C-5.61419922 16.50929688 -6.10339844 17.39359375 -6.60742188 18.3046875 C-11.23187194 26.57429233 -16.26629307 34.44828844 -22 42 C-22.66 41.67 -23.32 41.34 -24 41 C-23.443125 40.15179687 -22.88625 39.30359375 -22.3125 38.4296875 C-14.19501465 25.98466856 -6.97252037 13.11705394 0 0 Z " fill="#297DCA" transform="translate(795,644)"></path><path d="M0 0 C4.31567617 0.83816851 5.28414998 2.5297472 8 6 C9.29300506 7.16778773 10.60745624 8.31207836 11.9375 9.4375 C14.40440548 11.5357351 16.57698717 13.56750168 18.5625 16.125 C20.63404669 18.56836276 22.22644678 19.9811396 24.8125 21.75 C25.864375 22.4925 26.91625 23.235 28 24 C28 24.66 28 25.32 28 26 C28.66 26.33 29.32 26.66 30 27 C26.05863187 27 25.33826428 25.78817655 22.5 23.125 C21.61828125 22.30386719 20.7365625 21.48273437 19.828125 20.63671875 C18.89484375 19.76660156 17.9615625 18.89648438 17 18 C16.04609375 17.16082031 15.0921875 16.32164062 14.109375 15.45703125 C8.70994006 10.69933243 3.98144157 6.01416069 0 0 Z " fill="#1992BA" transform="translate(505,715)"></path><path d="M0 0 C0.99 0 1.98 0 3 0 C3 0.66 3 1.32 3 2 C3.8971875 2.14501953 3.8971875 2.14501953 4.8125 2.29296875 C7.48249591 3.15594957 8.26528849 4.13055818 10 6.3125 C13.28508064 10.25890978 16.79449637 13.88856764 20.4375 17.5 C20.98212891 18.04052002 21.52675781 18.58104004 22.08789062 19.13793945 C23.38992058 20.42732231 24.69466876 21.71395937 26 23 C25.34 23.66 24.68 24.32 24 25 C20.57886664 21.60350912 17.16097238 18.20380482 13.74609375 14.80102539 C12.58292608 13.64289941 11.41886426 12.48567077 10.25390625 11.3293457 C8.5835999 9.67111215 6.9164921 8.00972188 5.25 6.34765625 C4.7250293 5.82784683 4.20005859 5.30803741 3.65917969 4.7724762 C2.42032908 3.53382033 1.20725811 2.26946722 0 1 C0 0.67 0 0.34 0 0 Z " fill="#2498BD" transform="translate(564,650)"></path><path d="M0 0 C0 0.66 0 1.32 0 2 C-0.64874084 2.44024002 -1.29748169 2.88048004 -1.96588135 3.33406067 C-4.18151926 4.80713935 -4.18151926 4.80713935 -4.51898193 7.14506531 C-4.52786438 7.97335342 -4.53674683 8.80164154 -4.54589844 9.6550293 C-4.56561707 10.59577805 -4.58533569 11.53652679 -4.60565186 12.50578308 C-4.60688049 13.51836685 -4.60810913 14.53095062 -4.609375 15.57421875 C-4.62591125 16.61318802 -4.64244751 17.65215729 -4.65948486 18.72261047 C-4.70810857 22.04429958 -4.72936814 25.36553042 -4.75 28.6875 C-4.77814758 30.93817428 -4.80807329 33.18882707 -4.83984375 35.43945312 C-4.9138711 40.95955182 -4.96542926 46.47952087 -5 52 C-4.34 52 -3.68 52 -3 52 C-2.34 53.65 -1.68 55.3 -1 57 C-1.99 57 -2.98 57 -4 57 C-6.15290303 53.77064546 -6.25783912 52.86134917 -6.29052734 49.13305664 C-6.30328705 48.1451564 -6.31604675 47.15725616 -6.32919312 46.13941956 C-6.33141876 45.07376266 -6.33364441 44.00810577 -6.3359375 42.91015625 C-6.3425943 41.81408554 -6.3492511 40.71801483 -6.35610962 39.58872986 C-6.36623957 37.26953817 -6.37092653 34.95031731 -6.37060547 32.63110352 C-6.37497875 29.07975346 -6.41129669 25.52964572 -6.44921875 21.97851562 C-6.45508672 19.72656676 -6.45905624 17.47461198 -6.4609375 15.22265625 C-6.47530853 14.15902359 -6.48967957 13.09539093 -6.50448608 11.99952698 C-6.45886109 4.65110258 -6.45886109 4.65110258 -4.09619141 1.29858398 C-2 0 -2 0 0 0 Z " fill="#16C3B1" transform="translate(547,460)"></path><path d="M0 0 C3.89588091 1.40649027 7.09672527 3.24215519 10.52734375 5.5546875 C11.56697266 6.25207031 12.60660156 6.94945312 13.67773438 7.66796875 C14.75345703 8.39628906 15.82917969 9.12460937 16.9375 9.875 C18.00935547 10.59558594 19.08121094 11.31617188 20.18554688 12.05859375 C22.19014424 13.40657687 24.19346741 14.75645827 26.19506836 16.10888672 C29.12320808 18.08306813 32.06013138 20.04334235 35 22 C34.34 22.66 33.68 23.32 33 24 C33 23.34 33 22.68 33 22 C31.35 21.67 29.7 21.34 28 21 C28 20.34 28 19.68 28 19 C27.27039063 18.73316406 26.54078125 18.46632813 25.7890625 18.19140625 C23.03645741 17.01557354 20.8224762 15.64905123 18.375 13.9375 C15.82843844 12.16012171 13.96802184 10.98934061 11 10 C10.4225 9.401875 9.845 8.80375 9.25 8.1875 C6.41123188 5.42758655 3.48194194 3.87489181 0 2 C0 1.34 0 0.68 0 0 Z " fill="#187FC2" transform="translate(574,731)"></path><path d="M0 0 C0.66 0.33 1.32 0.66 2 1 C-1.91996253 5.73432094 -8.40017414 7.01405452 -14 9 C-15.12341797 9.41378906 -15.12341797 9.41378906 -16.26953125 9.8359375 C-19.01342149 10.75654555 -20.47790851 11.23069159 -23.18359375 10.03515625 C-23.78300781 9.69355469 -24.38242187 9.35195313 -25 9 C-23.7625 8.5875 -22.525 8.175 -21.25 7.75 C-20.43660156 7.47800781 -19.62320313 7.20601563 -18.78515625 6.92578125 C-16.81583904 6.27118352 -14.84424837 5.62340677 -12.87109375 4.98046875 C-11.29521484 4.46419922 -11.29521484 4.46419922 -9.6875 3.9375 C-8.70136719 3.61652344 -7.71523438 3.29554688 -6.69921875 2.96484375 C-4.02572522 2.08228571 -4.02572522 2.08228571 -1.76953125 0.81640625 C-1.18558594 0.54699219 -0.60164062 0.27757812 0 0 Z M-24 11 C-21 12 -21 12 -21 12 Z " fill="#2ECBB7" transform="translate(541,331)"></path><path d="M0 0 C-3.18067413 1.88484393 -5.34436209 2.09139095 -9 2 C-10.34157387 2.29844334 -11.67433645 2.63736377 -13 3 C-14.2065625 3.32097656 -14.2065625 3.32097656 -15.4375 3.6484375 C-16.283125 3.88820313 -17.12875 4.12796875 -18 4.375 C-19.2684375 4.72691406 -19.2684375 4.72691406 -20.5625 5.0859375 C-23.07959641 5.89044597 -23.07959641 5.89044597 -25.125 7.6640625 C-25.74375 8.10492188 -26.3625 8.54578125 -27 9 C-27.99 8.67 -28.98 8.34 -30 8 C-22.12738379 0.86544156 -10.36815989 -2.2539478 0 0 Z " fill="#15C5AB" transform="translate(471,354)"></path><path d="M0 0 C2.4375 0.375 2.4375 0.375 5 1 C5.33 1.66 5.66 2.32 6 3 C6.99 3.33 7.98 3.66 9 4 C10.57608893 5.44474819 11.99048709 6.98965988 13.4375 8.5625 C15.16484976 10.15166178 16.86709165 11.04386867 19 12 C19 12.66 19 13.32 19 14 C19.99 14.33 20.98 14.66 22 15 C21.01 15.33 20.02 15.66 19 16 C16.56992642 14.36999979 14.37464406 12.72709781 12.125 10.875 C11.51269531 10.38773438 10.90039062 9.90046875 10.26953125 9.3984375 C6.61774245 6.45823924 3.25220916 3.37586731 0 0 Z " fill="#288DC1" transform="translate(534,743)"></path><path d="M0 0 C0.33 0 0.66 0 1 0 C1.43173825 5.92869126 0.16896812 9.68715537 -2.5 14.9375 C-3.00080078 15.96327148 -3.00080078 15.96327148 -3.51171875 17.00976562 C-4.32893039 18.67921227 -5.1627747 20.34049985 -6 22 C-6.66 21.67 -7.32 21.34 -8 21 C-6.37297092 15.67517757 -4.51907905 10.72713452 -1.8671875 5.82421875 C-0.95468476 3.9046747 -0.4484213 2.07280459 0 0 Z " fill="#2B85C9" transform="translate(772,612)"></path><path d="M0 0 C-7.59680355 3.29194821 -14.69396556 5.46144636 -23 5 C-20.07948449 2.07948449 -16.5322813 1.71143432 -12.625 0.8125 C-11.85671875 0.62236328 -11.0884375 0.43222656 -10.296875 0.23632812 C-9.55179687 0.06166016 -8.80671875 -0.11300781 -8.0390625 -0.29296875 C-7.02126709 -0.53309692 -7.02126709 -0.53309692 -5.98291016 -0.77807617 C-3.74500552 -1.02853854 -2.13646318 -0.66529427 0 0 Z " fill="#0AC5A4" transform="translate(496,348)"></path><path d="M0 0 C0.66 0.66 1.32 1.32 2 2 C-0.64 2 -3.28 2 -6 2 C-6.99 3.98 -7.98 5.96 -9 8 C-8.34 8.33 -7.68 8.66 -7 9 C-6.375 11.0625 -6.375 11.0625 -6 13 C-9.875 11.25 -9.875 11.25 -11 9 C-11.44036697 3.82568807 -11.44036697 3.82568807 -10 1.125 C-6.66094446 -0.75321874 -3.79001126 -0.30079454 0 0 Z " fill="#18B6B6" transform="translate(536,607)"></path><path d="M0 0 C0.33 0.99 0.66 1.98 1 3 C-0.328125 5.55859375 -0.328125 5.55859375 -2.25 8.4375 C-2.87390625 9.38496094 -3.4978125 10.33242188 -4.140625 11.30859375 C-5.71150331 13.5824071 -7.31977017 15.80636661 -9 18 C-9.66 17.67 -10.32 17.34 -11 17 C-9.54197823 14.72896609 -8.08359508 12.45816565 -6.625 10.1875 C-6.2125 9.54490234 -5.8 8.90230469 -5.375 8.24023438 C-3.60185508 5.48042011 -1.81964862 2.72947292 0 0 Z " fill="#2276C5" transform="translate(782,668)"></path><path d="M0 0 C4.2967595 0.57342494 7.18479721 2.10158964 10.8125 4.4375 C11.78832031 5.05496094 12.76414062 5.67242188 13.76953125 6.30859375 C14.50558594 6.86675781 15.24164062 7.42492187 16 8 C16 8.66 16 9.32 16 10 C12.06342758 8.56786488 8.71068644 6.69667846 5.1875 4.4375 C4.21167969 3.81746094 3.23585938 3.19742188 2.23046875 2.55859375 C1.49441406 2.04425781 0.75835938 1.52992188 0 1 C0 0.67 0 0.34 0 0 Z " fill="#2681C3" transform="translate(578,775)"></path><path d="M0 0 C1.1128067 3.30834425 0.89382234 5.22552822 -0.25 8.5 C-0.50265625 9.2528125 -0.7553125 10.005625 -1.015625 10.78125 C-2.0677464 13.15269823 -3.37258237 14.98858495 -5 17 C-3.96232949 10.93267948 -2.66038099 5.5626148 0 0 Z " fill="#187CC3" transform="translate(779,594)"></path><path d="M0 0 C0.66 0.33 1.32 0.66 2 1 C-1.7353496 5.18811925 -4.77421606 7.22520545 -10 9 C-10.66 8.67 -11.32 8.34 -12 8 C-8.04 5.36 -4.08 2.72 0 0 Z " fill="#248CC5" transform="translate(791,518)"></path><path d="M0 0 C3.10083071 0.93746045 5.78824183 1.87087917 8.5625 3.5625 C11.09216697 5.05435488 13.11298928 5.5875699 16 6 C16 6.66 16 7.32 16 8 C10.7141451 8.50341475 8.13445849 7.26910671 4 4 C3.67 3.34 3.34 2.68 3 2 C2.01 2 1.02 2 0 2 C0 1.34 0 0.68 0 0 Z " fill="#1976C1" transform="translate(614,757)"></path><path d="M0 0 C0.99 0 1.98 0 3 0 C3 0.66 3 1.32 3 2 C3.60328125 2.09152344 4.2065625 2.18304687 4.828125 2.27734375 C7.53257263 3.17720492 8.2082314 4.20702019 9.75 6.5625 C10.17796875 7.20316406 10.6059375 7.84382812 11.046875 8.50390625 C11.36140625 8.99761719 11.6759375 9.49132812 12 10 C9 10 9 10 6.73828125 8.06640625 C5.93777344 7.24011719 5.13726563 6.41382813 4.3125 5.5625 C3.50425781 4.73878906 2.69601562 3.91507813 1.86328125 3.06640625 C0 1 0 1 0 0 Z " fill="#1A9CB9" transform="translate(564,650)"></path><path d="M0 0 C0 1.32 0 2.64 0 4 C-6.625 8 -6.625 8 -10 8 C-8.33333333 6.33333333 -6.66666667 4.66666667 -5 3 C-4.443125 2.401875 -3.88625 1.80375 -3.3125 1.1875 C-2 0 -2 0 0 0 Z " fill="#2D89D1" transform="translate(822,549)"></path><path d="M0 0 C0 0.66 0 1.32 0 2 C-1.57421875 3.18359375 -1.57421875 3.18359375 -3.6875 4.4375 C-4.41582031 4.87191406 -5.14414062 5.30632812 -5.89453125 5.75390625 C-6.58933594 6.16511719 -7.28414062 6.57632812 -8 7 C-9.423125 7.928125 -9.423125 7.928125 -10.875 8.875 C-11.57625 9.24625 -12.2775 9.6175 -13 10 C-13.66 9.67 -14.32 9.34 -15 9 C-12.87885041 7.49428254 -10.75346385 5.99531321 -8.625 4.5 C-8.02171875 4.07074219 -7.4184375 3.64148438 -6.796875 3.19921875 C-2.2265625 0 -2.2265625 0 0 0 Z " fill="#27CBB6" transform="translate(621,287)"></path><path d="M0 0 C1.5843317 0.08768248 3.16753567 0.19587329 4.75 0.3125 C6.07257812 0.39951172 6.07257812 0.39951172 7.421875 0.48828125 C10.32303774 1.0641181 11.79225607 2.07596148 14 4 C10.62700256 5.15006091 8.65146785 4.85199953 5.3125 3.6875 C4.52488281 3.42324219 3.73726562 3.15898437 2.92578125 2.88671875 C1 2 1 2 0 0 Z " fill="#2BC1B5" transform="translate(729,339)"></path><path d="M0 0 C0 0.66 0 1.32 0 2 C-1.63064764 3.05771739 -3.30280873 4.05273046 -5 5 C-5.99 5.66 -6.98 6.32 -8 7 C-10.6875 7.125 -10.6875 7.125 -13 7 C-4.25 0 -4.25 0 0 0 Z " fill="#29CAB4" transform="translate(582,312)"></path><path d="M0 0 C0.99 0 1.98 0 3 0 C1.88333826 3.34998521 1.25305075 3.79340222 -1.5625 5.6875 C-2.20316406 6.12449219 -2.84382812 6.56148437 -3.50390625 7.01171875 C-3.99761719 7.33785156 -4.49132812 7.66398438 -5 8 C-5.33 7.34 -5.66 6.68 -6 6 C-5.67 5.34 -5.34 4.68 -5 4 C-4.01 4 -3.02 4 -2 4 C-1.34 2.68 -0.68 1.36 0 0 Z " fill="#2777C7" transform="translate(713,745)"></path><path d="M0 0 C4.7037037 1.48538012 4.7037037 1.48538012 6.1875 4.0625 C6.455625 4.701875 6.72375 5.34125 7 6 C7.66 6.33 8.32 6.66 9 7 C4.68381834 7 3.07210341 4.86729652 0 2 C0 1.34 0 0.68 0 0 Z " fill="#2591BF" transform="translate(526,735)"></path><path d="M0 0 C0.99 0.33 1.98 0.66 3 1 C0.36 4.3 -2.28 7.6 -5 11 C-5 7.58678765 -4.33132534 6.60527115 -2.5 3.8125 C-2.0359375 3.09707031 -1.571875 2.38164063 -1.09375 1.64453125 C-0.7328125 1.10183594 -0.371875 0.55914063 0 0 Z " fill="#2174C5" transform="translate(768,688)"></path><path d="M0 0 C0.66 0.33 1.32 0.66 2 1 C2 1.66 2 2.32 2 3 C-4.96428571 6.34821429 -4.96428571 6.34821429 -9 5 C-7.54735962 4.1361871 -6.0876837 3.28419546 -4.625 2.4375 C-3.40683594 1.72400391 -3.40683594 1.72400391 -2.1640625 0.99609375 C-1.44992187 0.66738281 -0.73578125 0.33867187 0 0 Z " fill="#2D8FCA" transform="translate(825,498)"></path><path d="M0 0 C0.33 1.65 0.66 3.3 1 5 C0.34 4.67 -0.32 4.34 -1 4 C-1 3.34 -1 2.68 -1 2 C-3.97 2 -6.94 2 -10 2 C-6.3558226 -0.4294516 -4.28758728 -0.16179575 0 0 Z " fill="#398DD1" transform="translate(878,477)"></path><path d="M0 0 C0.99 0.33 1.98 0.66 3 1 C-1.39453125 5.00390625 -1.39453125 5.00390625 -3 6 C-3.99 5.67 -4.98 5.34 -6 5 C-2.25 1.125 -2.25 1.125 0 0 Z " fill="#1D75C3" transform="translate(657,745)"></path><path d="M0 0 C0.99 0.33 1.98 0.66 3 1 C0.36 3.64 -2.28 6.28 -5 9 C-5.33 8.01 -5.66 7.02 -6 6 C-5.34 6 -4.68 6 -4 6 C-3.67 5.01 -3.34 4.02 -3 3 C-2.34 3 -1.68 3 -1 3 C-0.67 2.01 -0.34 1.02 0 0 Z " fill="#2074C6" transform="translate(743,718)"></path><path d="M0 0 C0.33 0.66 0.66 1.32 1 2 C1.99 2.33 2.98 2.66 4 3 C7 4 7 4 8 6 C5.1875 6.3125 5.1875 6.3125 2 6 C0.125 3.5 0.125 3.5 -1 1 C-0.67 0.67 -0.34 0.34 0 0 Z " fill="#2985C6" transform="translate(629,719)"></path><path d="M0 0 C0.66 0.33 1.32 0.66 2 1 C-0.35468455 3.72647685 -2.5408417 4.98756342 -6 6 C-8.16015625 5.546875 -8.16015625 5.546875 -10 5 C-8.38007835 4.13624104 -6.75388139 3.28424146 -5.125 2.4375 C-4.22007812 1.96183594 -3.31515625 1.48617188 -2.3828125 0.99609375 C-1.20332031 0.50302734 -1.20332031 0.50302734 0 0 Z " fill="#22C7AE" transform="translate(541,331)"></path><path d="M0 0 C-4.49656104 2.24828052 -8.07872966 2.16682272 -13 2 C-8.62836676 -0.42868513 -4.86219789 -1.62073263 0 0 Z " fill="#2BC9B2" transform="translate(496,348)"></path><path d="M0 0 C0.66 0.33 1.32 0.66 2 1 C0 4 0 4 -2.625 4.6875 C-3.40875 4.790625 -4.1925 4.89375 -5 5 C-5 5.66 -5 6.32 -5 7 C-6.32 6.67 -7.64 6.34 -9 6 C-6.03 4.02 -3.06 2.04 0 0 Z " fill="#29C9B4" transform="translate(604,297)"></path><path d="M0 0 C2.475 0.99 2.475 0.99 5 2 C5 2.66 5 3.32 5 4 C6.32 4.66 7.64 5.32 9 6 C8.34 6.66 7.68 7.32 7 8 C5.83035398 6.8572081 4.66435444 5.71068285 3.5 4.5625 C2.8503125 3.92441406 2.200625 3.28632812 1.53125 2.62890625 C0 1 0 1 0 0 Z " fill="#21A8B9" transform="translate(551,638)"></path><path d="M0 0 C0.99 0.33 1.98 0.66 3 1 C2.0479279 2.00596297 1.08812654 3.00461563 0.125 4 C-0.40867187 4.556875 -0.94234375 5.11375 -1.4921875 5.6875 C-3 7 -3 7 -5 7 C-3.70700306 4.11562221 -2.34058637 2.12780579 0 0 Z " fill="#2E95C4" transform="translate(648,635)"></path><path d="M0 0 C0.66 0.66 1.32 1.32 2 2 C-0.25 4.0625 -0.25 4.0625 -3 6 C-4.32 5.67 -5.64 5.34 -7 5 C-4.69 3.35 -2.38 1.7 0 0 Z " fill="#1D8DC0" transform="translate(740,554)"></path><path d="M0 0 C0.99 0 1.98 0 3 0 C3 0.66 3 1.32 3 2 C1.25 3.2890625 1.25 3.2890625 -1 4.625 C-1.7425 5.07101562 -2.485 5.51703125 -3.25 5.9765625 C-3.8275 6.31429687 -4.405 6.65203125 -5 7 C-4.34 5.68 -3.68 4.36 -3 3 C-2.34 3 -1.68 3 -1 3 C-0.67 2.01 -0.34 1.02 0 0 Z " fill="#2B79CB" transform="translate(703,753)"></path><path d="M0 0 C-1.33332095 3.99996286 -3.4957827 4.83782337 -7 7 C-7 4 -7 4 -5.1875 1.8125 C-3 0 -3 0 0 0 Z " fill="#2175C6" transform="translate(731,732)"></path><path d="M0 0 C0.66 0.33 1.32 0.66 2 1 C0.35 2.98 -1.3 4.96 -3 7 C-3.99 6.34 -4.98 5.68 -6 5 C-4.02 3.35 -2.04 1.7 0 0 Z " fill="#287FC9" transform="translate(682,727)"></path><path d="M0 0 C-2.22189824 2.22189824 -4.08482708 2.92598892 -7 4 C-7.66 3.34 -8.32 2.68 -9 2 C-3.375 -1.125 -3.375 -1.125 0 0 Z " fill="#2687CB" transform="translate(848,489)"></path><path d="M0 0 C-2.73704754 2.73704754 -5.26044774 3.16182449 -9 4 C-11.4375 3.625 -11.4375 3.625 -13 3 C-8.44573816 0.33409063 -5.26053037 -0.31563182 0 0 Z " fill="#2DCAB7" transform="translate(539,371)"></path><path d="M0 0 C1.8871875 0.0309375 1.8871875 0.0309375 3.8125 0.0625 C2.8225 1.5475 2.8225 1.5475 1.8125 3.0625 C1.1525 3.0625 0.4925 3.0625 -0.1875 3.0625 C-0.1875 2.4025 -0.1875 1.7425 -0.1875 1.0625 C-1.8375 1.7225 -3.4875 2.3825 -5.1875 3.0625 C-5.8475 2.4025 -6.5075 1.7425 -7.1875 1.0625 C-4.43671116 0.14557039 -2.82801087 -0.04636083 0 0 Z " fill="#21C5AE" transform="translate(503.1875,344.9375)"></path><path d="M0 0 C0 0.66 0 1.32 0 2 C-3 4 -3 4 -6.1875 3.625 C-7.115625 3.41875 -8.04375 3.2125 -9 3 C-3.2 0 -3.2 0 0 0 Z " fill="#1FC8AD" transform="translate(516,341)"></path></svg>