<svg xmlns="http://www.w3.org/2000/svg" viewBox="431 286 448 516">
<path fill="#0da2b3" d="M632 286c6.41 2.2 11.78 6.97 17.21 10.92A237 237 0 0 0 687 319v2l3.31.63c4.77 1.17 8.67 3.46 12.92 5.86 4.12 2.25 8.38 3.87 12.77 5.51l3.94 1.54 4.25 1.65 2.01.8a37 37 0 0 0 9.23 2.44c3.11.5 4.87 1.08 7.63 2.42 6.08 2.84 12.48 4.13 19 5.59l3.98.91a632 632 0 0 0 18.9 4.04l3.24.64q2.96.58 5.93 1.1c10.45 2.03 18.8 5.93 24.89 14.87 3.42 6.65 4.58 12.54 4.45 19.95v2.84a979 979 0 0 1-.06 9.19l-.02 6.41q-.02 8.4-.1 16.8-.05 8.58-.08 17.17-.06 16.83-.19 33.64l-1.6.84-7.37 3.84-2.52 1.32a272 272 0 0 0-17.95 10.3c-4.36 2.7-4.36 2.7-6.56 2.7V390l-17-3a699 699 0 0 1-14.69-3.25l-1.94-.45A347 347 0 0 1 718 373l-2.86-.99c-28.06-9.8-61.3-23.1-83.7-43.32-2.27-1.91-2.27-1.91-4.83-1.72-3.48 1.37-6.39 3.38-9.42 5.53a251 251 0 0 1-22.41 13.53l-4.67 2.58C566.66 361.64 541.98 372.2 516 379l-3.05.8c-13.19 3.45-26.3 6.73-39.8 8.7-3.04.32-3.04.32-5.15 1.5q-.14 31.62-.2 63.25l-.1 29.37q-.06 12.82-.08 25.64l-.04 13.54c-.23 35.97 3.96 70.23 19.42 103.2l1.71 3.8c10.88 23.95 25.83 46.47 44.85 64.76C535 695 535 695 537.44 698c2.59 3.03 5.3 5.5 8.33 8.09q3.6 3.12 7.1 6.35C572.62 730.2 595.14 744.66 618 758l1.8 1.17c2.64 1.66 4.55 2.84 7.72 2.8a68 68 0 0 0 9.1-4.4l2.04-1.16A408 408 0 0 0 702 711l2.57-2.23c10.73-9.47 20.59-19.5 29.43-30.77l1.98-2.38C749.8 658.9 760.24 639.78 769 620l.83-1.87c2.65-6.03 4.94-11.9 6.42-18.31 2.85-12.15 6.03-18.96 16.05-26.5 2.77-2.16 5.28-4.6 7.82-7 4.73-4.35 9.59-8.44 14.6-12.45 2.25-1.77 2.25-1.77 3.96-3.62C820 549 820 549 822 549c-1.4 19.54-4.27 38.25-10 57l-2.78 10.26C798.82 648.08 781.2 677.27 760 703l-1.47 1.8c-11.2 13.48-23.33 26.5-37.15 37.32-2.24 1.77-4.3 3.63-6.38 5.57-20.26 18.19-44.69 32.29-68.19 45.81l-2.64 1.53A348 348 0 0 1 637 799l-1.85 1.04c-4.88 2.48-9 2.27-14.15.96a65 65 0 0 1-8.62-4.19l-2.45-1.33C581.86 780.02 555.2 762.04 531 741l-2.16-1.85A473 473 0 0 1 523 734l-2.9-2.59c-5.05-4.53-9.93-9.08-14.3-14.3-2.17-2.54-4.49-4.93-6.8-7.36-12-12.9-22.12-27.58-31-42.75l-1.23-2.07c-14.01-23.69-23.88-49.45-30.08-76.24l-.7-2.94c-5.32-24.4-5.44-49.12-5.36-73.95v-13.75q0-11.5.03-23 .03-13.26.02-26.53l.01-25.7v-10.87q0-6.39.03-12.77v-4.67c-.02-12.45.71-22.58 9.4-32.2 7.39-6.87 17.26-8.17 26.88-9.75a258 258 0 0 0 30-6.97c3.32-.98 6.66-1.84 10-2.72 8.1-2.15 15.91-4.24 23.52-7.77 3.96-1.76 8.02-3.24 12.07-4.76 26.8-10.57 51.33-25.72 74.8-42.26 4.52-3.05 9.33-2.67 14.61-2.08"/>
<path fill="#07b1b1" d="m608.35 400.82 2.74-.04 2.96-.02 3.04-.02 6.39-.03q4.87-.04 9.74-.11l6.2-.03 2.94-.05c5.86.02 9.18.58 13.64 4.48 1.2 2.4 1.14 3.91 1.16 6.59l.03 2.88.02 3.12.09 6.5q.06 5.14.1 10.29l.12 9.9.01 3.11.05 2.9.03 2.54c.49 2.71 1.14 3.6 3.39 5.17 2.11.44 2.11.44 4.47.35l2.73.01 2.95-.02 6.17.04 9.74-.02q4.7 0 9.4.04l2.92-.04c4.15.04 7.7.17 11.23 2.47 3.53 4.68 3.24 8.7 3.15 14.42l.01 3.3q0 3.46-.04 6.92-.04 5.28 0 10.56l-.03 6.72.02 3.19c-.14 7.3-.14 7.3-3.14 11.2-3.3 2.38-4.9 2.98-8.89 3.02l-2.7.03-2.92.02-6.1.09q-4.81.06-9.63.1l-9.27.12-2.92.01-2.71.05-2.38.03c-2.64.5-3.52 1.2-5.06 3.39a13 13 0 0 0-.35 4.56l-.01 2.8.02 3-.03 6.32q-.01 4.98.01 9.95 0 4.8-.04 9.6l.04 3c-.05 4.54-.13 7.76-3.05 11.38-3.27 3.02-4.66 3.51-8.96 3.55l-2.74.03-2.97.01-3.05.02-6.4.02q-4.89.02-9.78.07l-6.21.02-2.95.04c-8.73-.03-8.73-.03-12.53-3.37-1.82-2.99-2.25-5.24-2.27-8.72l-.03-2.82v-3.03l-.08-6.34-.08-10q-.03-4.83-.1-9.66v-3.03l-.04-2.8-.01-2.48c-.5-2.68-1.16-3.56-3.39-5.12-2.16-.43-2.16-.43-4.58-.34h-2.8l-3.02.04-6.33-.03q-4.99 0-9.98.04-4.8.02-9.63-.01l-3 .05c-4.68-.05-6.96-.23-10.78-3.09-3-4.52-2.61-9.77-2.58-15l-.02-3.3q-.01-3.46.01-6.9.01-5.27-.06-10.54v-6.7l-.04-3.19c.08-4.83.23-7.26 3.22-11.2 4.26-2.78 8.94-2.5 13.88-2.43l2.97-.03q4.68-.02 9.37 0 4.69.01 9.38-.02a363 363 0 0 1 5.83.01h5.01c2.81-.47 4.15-1.34 6.15-3.36.58-2.2.58-2.2.47-4.67v-2.86l-.04-3.09.03-6.46-.04-10.2q-.02-4.92.01-9.84l-.05-3.07c.05-7.08.05-7.08 3.03-10.93 3.32-2.41 4.92-3 8.94-3.06"/>
<path fill="#1486bd" d="m878 477 1 5a78 78 0 0 1-11.81 9.06c-15.99 9.94-31.01 21.75-45.5 33.72l-5.47 4.47a347 347 0 0 0-15.69 13.5 209 209 0 0 1-8.1 6.75c-4.4 3.56-8.39 7.35-12.34 11.4a89 89 0 0 1-5.71 5.22c-4.9 4.2-9.35 8.82-13.87 13.4a193 193 0 0 1-11.75 10.95c-5.45 4.75-10.28 10.06-14.98 15.53-1.85 2.08-3.8 4.04-5.78 6a163 163 0 0 0-9.16 9.88 378 378 0 0 1-6.21 6.93 321 321 0 0 0-11.37 13.46 216 216 0 0 1-6.88 7.85 169 169 0 0 0-9.46 11.38 494 494 0 0 1-5.56 7.1c-13.79 17.4-27.37 35.18-39.27 53.93-1.67 2.26-3.08 2.47-5.83 2.98-4.93-.77-6.52-3.76-9.38-7.64l-3.43-4.42-1.74-2.26a246 246 0 0 0-7.96-9.57l-1.5-1.74a641 641 0 0 0-11-12.39 447 447 0 0 1-4.15-4.64 440 440 0 0 0-19.3-20.18l-5.58-5.59A298 298 0 0 0 552 640l-4.81-4.37a325 325 0 0 0-18.95-15.77C526 618 526 618 525 616c-.44-5.17-.44-5.17 1-7.87 3.75-2.11 8.2-1.52 12.28-.63q3.74 1.09 7.4 2.38l2.76.94c22.65 7.99 42.78 20.43 62.59 33.79l2.47 1.66a186 186 0 0 1 5.21 3.75l2.67 1.97 2.4 1.82c2.11 1.39 2.11 1.39 4.34 1.03 3.16-1.4 5.33-3.94 7.7-6.4l1.6-1.64q5.28-5.41 10.18-11.18A49 49 0 0 1 652 631h2l1-3c1.32-1.3 1.32-1.3 3.13-2.75a189 189 0 0 0 12.37-11.75c4.4-4.44 8.78-8.8 13.56-12.84 2.47-2.12 4.86-4.33 7.25-6.53 4.57-4.17 9.27-8.1 14.09-11.99q3.53-2.92 6.91-6.02c4.8-4.3 9.86-8.24 14.95-12.2a603 603 0 0 0 9.36-7.46c7-5.66 14.15-11 21.53-16.16q2.93-2.06 5.84-4.17A541 541 0 0 1 796 515l1.9-1.17q6.5-4 13.1-7.83l2.65-1.55c48.62-28.43 48.62-28.43 64.35-27.45"/>
<path fill="#227bc6" d="M772 612h1c.46 6.04-.91 9.85-3.62 15.19l-1.11 2.25-2.23 4.49a285 285 0 0 0-2.62 5.42c-3.51 7.35-7.77 13.97-12.42 20.65l-1.64 2.48c-3.95 5.89-8.41 11.22-13.1 16.52l-1.49 1.7-1.32 1.5c-1.6 1.93-1.6 1.93-3.32 4.69a56 56 0 0 1-6.95 8.2l-2.81 2.82-1.47 1.45-4.3 4.32A218 218 0 0 1 695 721l-2.1 1.67-5.28 4.14-3.46 2.71-1.63 1.27a264 264 0 0 0-4.13 3.35A67 67 0 0 1 671 739a318 318 0 0 0-4.87 3.38l-2.64 1.85a281 281 0 0 0-4.41 3.2 64 64 0 0 1-10.97 6.47 67 67 0 0 0-6.74 4.16c-9.53 6.5-9.53 6.5-15.37 6.94-2.56-.81-2.56-.81-5-2l-2.31-1.12L617 761v-2h-3v-2c3.16.96 5.79 1.86 8.56 3.69 3.13 1.68 4.06 1.28 7.44.31a95 95 0 0 0 6.63-3.44l2.03-1.15A408 408 0 0 0 702 711l2.57-2.23c10.73-9.47 20.59-19.5 29.43-30.77l1.98-2.38C751.46 656.9 763.7 634.82 772 612"/>
<path fill="#1e81c6" d="M822 549v4l-3.07 1.6c-4.16 2.39-7.43 5.39-10.87 8.71l-3.7 3.5-1.76 1.69a187 187 0 0 1-5.85 5.25l-1.8 1.57-4.62 3.96-2.77 2.4-2.56 2.2c-2.1 2.22-2.61 3.16-3 6.12l-.4 2.26-.41 2.43c-1.16 5.86-2.89 12-7.19 16.31q.9-5.02 2-10l.38-1.95c2.36-11.89 6.44-18.2 15.9-25.66 2.75-2.22 5.28-4.66 7.84-7.08 4.73-4.34 9.59-8.43 14.6-12.43 2.25-1.78 2.25-1.78 3.96-3.63C820 549 820 549 822 549"/>
<path fill="#2777c8" d="M703 753h3v2c-1.29 1.18-1.29 1.18-3.13 2.51l-2.1 1.53-2.33 1.65-2.4 1.7a678 678 0 0 1-20.48 13.86l-3.03 1.99-2.84 1.84-2.52 1.64C665 783 665 783 662 784c1.4-4.18 4.36-5.47 7.94-7.69l1.96-1.26c4.82-3.05 4.82-3.05 7.1-3.05l1-2a88 88 0 0 1 4.44-3.12l2.43-1.64C689 764 689 764 691 764l1-3h2l1-2c4.5-3 4.5-3 7-3z"/>
<path fill="#297dca" d="M795 644h2c-1.6 5.66-4.28 10.52-7.12 15.63l-1.49 2.68A202 202 0 0 1 773 686l-2-1 1.69-2.57c8.11-12.44 15.34-25.31 22.31-38.43"/>
<path fill="#1992ba" d="M505 715c4.32.84 5.28 2.53 8 6a162 162 0 0 0 3.94 3.44 45 45 0 0 1 6.62 6.68 28 28 0 0 0 6.25 5.63L533 739v2l2 1c-3.94 0-4.66-1.21-7.5-3.87l-2.67-2.5L522 733l-2.89-2.54C513.71 725.7 508.98 721 505 715"/>
<path fill="#2498bd" d="M564 650h3v2l1.81.3c2.67.86 3.46 1.83 5.19 4.01 3.29 3.95 6.8 7.58 10.44 11.19l1.65 1.64L590 673l-2 2-10.25-10.2-3.5-3.47-5-4.98-1.59-1.58A209 209 0 0 1 564 651z"/>
<path fill="#16c3b1" d="M547 460v2l-1.97 1.33c-2.21 1.48-2.21 1.48-2.55 3.82l-.03 2.5-.06 2.85v3.07l-.05 3.15q-.07 4.98-.09 9.97l-.09 6.75q-.11 8.28-.16 16.56h2l2 5h-3c-2.15-3.23-2.26-4.14-2.29-7.87l-.04-3v-3.22l-.03-3.32-.01-6.96q-.01-5.33-.08-10.65l-.01-6.76-.04-3.22c.04-7.35.04-7.35 2.4-10.7 2.1-1.3 2.1-1.3 4.1-1.3"/>
<path fill="#187fc2" d="M574 731a47 47 0 0 1 10.53 5.56l3.15 2.1 3.26 2.22 3.25 2.18 6 4.05L609 753l-2 2v-2l-5-1v-2l-2.21-.8a40 40 0 0 1-7.41-4.26c-2.55-1.78-4.41-2.95-7.38-3.94l-1.75-1.81c-2.84-2.76-5.77-4.32-9.25-6.19z"/>
<path fill="#2ecbb7" d="m541 331 2 1c-3.92 4.73-10.4 6.01-16 8l-2.27.84c-2.74.92-4.2 1.4-6.91.2L516 340l3.75-1.25 2.47-.82q2.95-.99 5.9-1.95l3.2-1.04 2.98-.98c2.67-.88 2.67-.88 4.93-2.14zm-24 11 3 1Z"/>
<path fill="#15c5ab" d="M471 354c-3.18 1.89-5.34 2.1-9 2a86 86 0 0 0-4 1l-2.44.65-2.56.73-2.56.7c-2.52.81-2.52.81-4.57 2.58L444 363l-3-1a34.9 34.9 0 0 1 30-8"/>
<path fill="#288dc1" d="M534 743c2.44.38 2.44.38 5 1l1 2 3 1c1.58 1.45 2.99 2.99 4.44 4.56A19 19 0 0 0 553 755v2l3 1-3 1a86 86 0 0 1-6.87-5.12l-1.86-1.48A109 109 0 0 1 534 743"/>
<path fill="#2b85c9" d="M772 612h1c.43 5.93-.83 9.69-3.5 14.94l-1.01 2.07q-1.23 2.5-2.49 4.99l-2-1a81 81 0 0 1 6.13-15.18A26 26 0 0 0 772 612"/>
<path fill="#0ac5a4" d="M496 348c-7.6 3.3-14.7 5.46-23 5 2.92-2.92 6.47-3.29 10.38-4.19l2.32-.57 2.26-.53 2.06-.49c2.23-.25 3.84.11 5.98.78"/>
<path fill="#18b6b6" d="m536 607 2 2h-8l-3 6 2 1c.63 2.06.63 2.06 1 4-3.87-1.75-3.87-1.75-5-4-.44-5.17-.44-5.17 1-7.87 3.34-1.88 6.21-1.43 10-1.13"/>
<path fill="#2276c5" d="m782 668 1 3c-1.33 2.56-1.33 2.56-3.25 5.44l-1.89 2.87A168 168 0 0 1 773 686l-2-1 4.38-6.81 1.25-1.95q2.65-4.14 5.37-8.24"/>
<path fill="#2681c3" d="M578 775c4.3.57 7.19 2.1 10.81 4.44l2.96 1.87L594 783v2a53 53 0 0 1-10.81-5.56l-2.96-1.88L578 776z"/>
<path fill="#187cc3" d="M779 594c1.11 3.3.9 5.23-.25 8.5l-.77 2.28A27 27 0 0 1 774 611c1.04-6.07 2.34-11.44 5-17"/>
<path fill="#248cc5" d="m791 518 2 1c-3.73 4.19-6.77 6.23-12 8l-2-1z"/>
<path fill="#1976c1" d="M614 757c3.1.94 5.79 1.87 8.56 3.56 2.53 1.5 4.55 2.03 7.44 2.44v2c-5.29.5-7.87-.73-12-4l-1-2h-3z"/>
<path fill="#1a9cb9" d="M564 650h3v2l1.83.28c2.7.9 3.38 1.93 4.92 4.28l1.3 1.94.95 1.5c-3 0-3 0-5.26-1.93l-2.43-2.5-2.45-2.5C564 651 564 651 564 650"/>
<path fill="#2d89d1" d="M822 549v4c-6.62 4-6.62 4-10 4l5-5 1.69-1.81C820 549 820 549 822 549"/>
<path fill="#27cbb6" d="M621 287v2c-1.57 1.18-1.57 1.18-3.69 2.44l-2.2 1.31L613 294l-2.87 1.88L608 297l-2-1q3.18-2.26 6.38-4.5l1.82-1.3c4.57-3.2 4.57-3.2 6.8-3.2"/>
<path fill="#2bc1b5" d="M729 339q2.38.14 4.75.31l2.67.18c2.9.57 4.37 1.59 6.58 3.51-3.37 1.15-5.35.85-8.69-.31l-2.38-.8C730 341 730 341 729 339"/>
<path fill="#29cab4" d="M582 312v2a88 88 0 0 1-5 3l-3 2c-2.69.13-2.69.13-5 0 8.75-7 8.75-7 13-7"/>
<path fill="#2777c7" d="M713 745h3c-1.12 3.35-1.75 3.8-4.56 5.69L709.5 752l-1.5.99-1-2 1-2h3z"/>
<path fill="#2591bf" d="M526 735c4.7 1.49 4.7 1.49 6.19 4.06L533 741l2 1c-4.32 0-5.93-2.13-9-5z"/>
<path fill="#2174c5" d="m768 688 3 1-8 10c0-3.41.67-4.4 2.5-7.19l1.4-2.16z"/>
<path fill="#2d8fca" d="m825 498 2 1v2c-6.96 3.35-6.96 3.35-11 2l4.38-2.56 2.46-1.44z"/>
<path fill="#398dd1" d="m878 477 1 5-2-1v-2h-9c3.64-2.43 5.71-2.16 10-2"/>
<path fill="#1d75c3" d="m657 745 3 1c-4.4 4-4.4 4-6 5l-3-1c3.75-3.87 3.75-3.87 6-5"/>
<path fill="#2074c6" d="m743 718 3 1-8 8-1-3h2l1-3h2z"/>
<path fill="#2985c6" d="m629 719 1 2 3 1c3 1 3 1 4 3-2.81.31-2.81.31-6 0-1.87-2.5-1.87-2.5-3-5z"/>
<path fill="#22c7ae" d="m541 331 2 1c-2.35 2.73-4.54 3.99-8 5-2.16-.45-2.16-.45-4-1q2.43-1.3 4.88-2.56l2.74-1.44z"/>
<path fill="#2bc9b2" d="M496 348c-4.5 2.25-8.08 2.17-13 2 4.37-2.43 8.14-3.62 13-2"/>
<path fill="#29c9b4" d="m604 297 2 1c-2 3-2 3-4.62 3.69L599 302v2l-4-1z"/>
<path fill="#21a8b9" d="m551 638 5 2v2l4 2-2 2-3.5-3.44-1.97-1.93C551 639 551 639 551 638"/>
<path fill="#2e95c4" d="m648 635 3 1-2.87 3-1.62 1.69C645 642 645 642 643 642a19 19 0 0 1 5-7"/>
<path fill="#1d8dc0" d="m740 554 2 2c-2.25 2.06-2.25 2.06-5 4l-4-1z"/>
<path fill="#2b79cb" d="M703 753h3v2c-1.75 1.29-1.75 1.29-4 2.63l-2.25 1.35L698 760l2-4h2z"/>
<path fill="#2175c6" d="M731 732c-1.33 4-3.5 4.84-7 7 0-3 0-3 1.81-5.19C728 732 728 732 731 732"/>
<path fill="#287fc9" d="m682 727 2 1-5 6-3-2z"/>
<path fill="#2687cb" d="M848 489c-2.22 2.22-4.08 2.93-7 4l-2-2c5.63-3.12 5.63-3.12 9-2"/>
<path fill="#2dcab7" d="M539 371c-2.74 2.74-5.26 3.16-9 4-2.44-.37-2.44-.37-4-1 4.55-2.67 7.74-3.32 13-3"/>
<path fill="#21c5ae" d="m503.19 344.94 3.81.06-2 3h-2v-2l-5 2-2-2a19 19 0 0 1 7.19-1.06"/>
<path fill="#1fc8ad" d="M516 341v2c-3 2-3 2-6.19 1.63L507 344c5.8-3 5.8-3 9-3"/>
</svg>